<svg width="50" height="50" viewBox="0 0 50 50" fill="none" xmlns="http://www.w3.org/2000/svg">
<g clip-path="url(#clip0_129_456)">
<circle cx="25" cy="25" r="14" fill="white"/>
<g filter="url(#filter0_d_129_456)">
<path fill-rule="evenodd" clip-rule="evenodd" d="M24.8333 45.6667C36.3392 45.6667 45.6667 36.3392 45.6667 24.8333C45.6667 13.3274 36.3392 4 24.8333 4C13.3274 4 4 13.3274 4 24.8333C4 36.3392 13.3274 45.6667 24.8333 45.6667ZM22.1115 32.8454L31.9452 27.0396C33.5737 26.0779 33.5737 23.5887 31.9452 22.6271L22.1115 16.8212C20.5286 15.8867 18.5833 17.1031 18.5833 19.0274V30.6392C18.5833 32.5635 20.5286 33.78 22.1115 32.8454Z" fill="#0B77FF"/>
</g>
</g>
<defs>
<filter id="filter0_d_129_456" x="0" y="4" width="49.6667" height="49.6665" filterUnits="userSpaceOnUse" color-interpolation-filters="sRGB">
<feFlood flood-opacity="0" result="BackgroundImageFix"/>
<feColorMatrix in="SourceAlpha" type="matrix" values="0 0 0 0 0 0 0 0 0 0 0 0 0 0 0 0 0 0 127 0" result="hardAlpha"/>
<feOffset dy="4"/>
<feGaussianBlur stdDeviation="2"/>
<feComposite in2="hardAlpha" operator="out"/>
<feColorMatrix type="matrix" values="0 0 0 0 0 0 0 0 0 0 0 0 0 0 0 0 0 0 0.05 0"/>
<feBlend mode="normal" in2="BackgroundImageFix" result="effect1_dropShadow_129_456"/>
<feBlend mode="normal" in="SourceGraphic" in2="effect1_dropShadow_129_456" result="shape"/>
</filter>
<clipPath id="clip0_129_456">
<rect width="50" height="50" fill="white"/>
</clipPath>
</defs>
</svg>
